<?xml version="1.0" standalone="no"?>
<!DOCTYPE svg PUBLIC "-//W3C//DTD SVG 20010904//EN"
 "http://www.w3.org/TR/2001/REC-SVG-20010904/DTD/svg10.dtd">
<svg version="1.0" xmlns="http://www.w3.org/2000/svg"
 width="515.000000pt" height="515.000000pt" viewBox="0 0 515.000000 515.000000"
 preserveAspectRatio="xMidYMid meet">
<metadata>
Created by potrace 1.11, written by Peter Selinger 2001-2013
</metadata>
<g transform="translate(0.000000,515.000000) scale(0.100000,-0.100000)"
fill="#000000" stroke="none">
<path d="M1125 4560 c-156 -23 -218 -39 -340 -87 -185 -73 -428 -197 -482
-246 -20 -18 -23 -30 -23 -94 0 -56 3 -73 13 -68 25 12 -21 -18 -143 -93
l-125 -77 0 -1565 0 -1565 200 0 c110 -1 216 3 236 7 20 4 89 14 155 23 167
21 179 22 269 30 44 4 91 8 105 10 141 21 718 21 873 1 15 -2 55 -7 90 -11 89
-9 251 -42 326 -66 59 -19 171 -72 249 -119 18 -11 38 -17 44 -14 7 4 8 2 4
-4 -11 -19 0 -14 60 24 122 78 298 144 429 159 22 3 121 18 138 21 17 3 59 7
207 20 86 7 447 7 586 -1 152 -8 289 -20 414 -35 41 -5 100 -12 130 -16 30 -3
87 -11 125 -18 39 -6 158 -11 265 -11 l195 0 3 1563 2 1562 -57 37 c-32 20
-92 57 -133 82 l-75 46 3 77 3 77 -48 35 c-102 75 -471 244 -609 280 -208 53
-504 58 -709 12 -302 -68 -505 -154 -842 -357 -45 -27 -85 -49 -89 -49 -4 0
-34 17 -68 39 -218 137 -489 265 -681 321 -87 25 -133 35 -290 65 -48 10 -355
13 -410 5z m150 -234 c78 -8 108 -12 210 -27 39 -6 84 -13 100 -15 261 -39
518 -138 730 -281 l100 -68 3 -882 2 -883 25 0 25 0 0 861 0 861 -25 20 c-18
14 -25 29 -25 53 0 30 9 41 71 92 38 32 76 58 84 58 8 0 46 -26 84 -58 62 -51
71 -62 71 -92 0 -24 -7 -39 -25 -53 l-25 -20 0 -861 0 -861 25 0 25 0 2 883 3
882 100 67 c170 115 393 213 557 247 54 12 84 18 117 25 23 5 209 33 271 41
235 28 435 23 535 -15 14 -5 25 -7 25 -5 0 10 344 -122 369 -142 6 -4 5 -2902
-1 -2908 -2 -2 -56 8 -119 24 -134 34 -267 57 -399 70 -90 9 -453 7 -513 -3
-15 -2 -60 -7 -100 -11 -40 -3 -83 -8 -97 -10 -14 -2 -47 -6 -75 -10 -27 -3
-61 -7 -75 -10 -14 -2 -41 -7 -60 -9 -77 -10 -200 -39 -283 -67 -79 -26 -378
-168 -401 -190 -6 -5 -14 -5 -20 0 -6 5 -72 39 -146 75 -74 37 -143 71 -152
76 -46 26 -196 70 -323 96 -31 6 -302 42 -370 49 -33 3 -91 9 -130 13 -142 14
-492 7 -610 -13 -140 -24 -213 -39 -293 -60 -52 -14 -97 -23 -100 -21 -7 4 -8
2904 -1 2909 9 7 147 67 189 82 25 9 54 21 65 25 38 17 130 41 217 58 89 18
233 21 363 8z"/>
</g>
</svg>
